{
  "accessors": [
    {
      "bufferView": 2,
      "componentType": 5126,
      "count": 994,
      "max": [
        10.70810604095459,
        36.119529724121094,
        2.233853816986084
      ],
      "min": [
        -10.635636329650879,
        25.45159339904785,
        -3.1638927459716797
      ],
      "type": "VEC3"
    },
    {
      "bufferView": 2,
      "byteOffset": 11928,
      "componentType": 5126,
      "count": 994,
      "max": [
        0.9986142516136169,
        0.9894657731056213,
        0.9996911883354187
      ],
      "min": [
        -0.9926868081092834,
        -0.9982811212539673,
        -0.9999217987060547
      ],
      "type": "VEC3"
    },
    {
      "bufferView": 3,
      "componentType": 5126,
      "count": 994,
      "max": [
        0.9989707469940186,
        0.9998918175697327,
        0.9995610117912292,
        1.0
      ],
      "min": [
        -0.9965361952781677,
        -1.0,
        -0.9999984502792358,
        1.0
      ],
      "type": "VEC4"
    },
    {
      "bufferView": 1,
      "componentType": 5126,
      "count": 994,
      "max": [
        0.99973064661026,
        0.9651773571968079
      ],
      "min": [
        0.00026933258050121367,
        0.00026933258050121367
      ],
      "type": "VEC2"
    },
    {
      "bufferView": 1,
      "byteOffset": 7952,
      "componentType": 5126,
      "count": 994,
      "max": [
        0.99973064661026,
        0.9651773571968079
      ],
      "min": [
        0.00026933258050121367,
        0.00026933258050121367
      ],
      "type": "VEC2"
    },
    {
      "bufferView": 1,
      "byteOffset": 15904,
      "componentType": 5126,
      "count": 994,
      "max": [
        0.99973064661026,
        0.9651773571968079
      ],
      "min": [
        0.00026933258050121367,
        0.00026933258050121367
      ],
      "type": "VEC2"
    },
    {
      "bufferView": 0,
      "componentType": 5125,
      "count": 4563,
      "type": "SCALAR"
    }
  ],
  "asset": {
    "extras": {
      "author": "mikeryo iraidamon (https://sketchfab.com/mikeryoiraidamon)",
      "license": "CC-BY-4.0 (http://creativecommons.org/licenses/by/4.0/)",
      "source": "https://sketchfab.com/3d-models/free-lowpoly-jacket-8f3b4b3a188546da9afb756eac7ebba8",
      "title": "Free Lowpoly Jacket"
    },
    "generator": "Sketchfab-15.83.0",
    "version": "2.0"
  },
  "bufferViews": [
    {
      "buffer": 0,
      "byteLength": 18252,
      "name": "floatBufferViews",
      "target": 34963
    },
    {
      "buffer": 0,
      "byteLength": 23856,
      "byteOffset": 18252,
      "byteStride": 8,
      "name": "floatBufferViews",
      "target": 34962
    },
    {
      "buffer": 0,
      "byteLength": 23856,
      "byteOffset": 42108,
      "byteStride": 12,
      "name": "floatBufferViews",
      "target": 34962
    },
    {
      "buffer": 0,
      "byteLength": 15904,
      "byteOffset": 65964,
      "byteStride": 16,
      "name": "floatBufferViews",
      "target": 34962
    }
  ],
  "buffers": [
    {
      "byteLength": 81868,
      "uri": "scene.bin"
    }
  ],
  "images": [
    {
      "uri": "textures/Material.001_baseColor.png"
    },
    {
      "uri": "textures/Material.001_metallicRoughness.png"
    },
    {
      "uri": "textures/Material.001_normal.png"
    }
  ],
  "materials": [
    {
      "doubleSided": true,
      "name": "Material.001",
      "normalTexture": {
        "index": 2
      },
      "pbrMetallicRoughness": {
        "baseColorTexture": {
          "index": 0
        },
        "metallicFactor": 0.0,
        "metallicRoughnessTexture": {
          "index": 1
        },
        "roughnessFactor": 0.8
      }
    }
  ],
  "meshes": [
    {
      "name": "Lp_jacket_Material.001_0",
      "primitives": [
        {
          "attributes": {
            "NORMAL": 1,
            "POSITION": 0,
            "TANGENT": 2,
            "TEXCOORD_0": 3,
            "TEXCOORD_1": 4,
            "TEXCOORD_2": 5
          },
          "indices": 6,
          "material": 0,
          "mode": 4
        }
      ]
    }
  ],
  "nodes": [
    {
      "children": [
        1
      ],
      "matrix": [
        1.0,
        0.0,
        0.0,
        0.0,
        0.0,
        2.220446049250313e-16,
        -1.0,
        0.0,
        0.0,
        1.0,
        2.220446049250313e-16,
        0.0,
        0.0,
        0.0,
        0.0,
        1.0
      ],
      "name": "Sketchfab_model"
    },
    {
      "children": [
        2
      ],
      "matrix": [
        1.0,
        0.0,
        0.0,
        0.0,
        0.0,
        0.0,
        1.0,
        0.0,
        0.0,
        -1.0,
        0.0,
        0.0,
        0.0,
        0.0,
        0.0,
        1.0
      ],
      "name": "jacket.fbx"
    },
    {
      "children": [
        3
      ],
      "name": "RootNode"
    },
    {
      "children": [
        4
      ],
      "matrix": [
        1.0,
        0.0,
        0.0,
        0.0,
        0.0,
        1.0,
        0.0,
        0.0,
        0.0,
        0.0,
        1.0,
        0.0,
        2.004126787185669,
        0.39324045181274414,
        -15.789573669433594,
        1.0
      ],
      "name": "Lp_jacket"
    },
    {
      "mesh": 0,
      "name": "Lp_jacket_Material.001_0"
    }
  ],
  "samplers": [
    {
      "magFilter": 9729,
      "minFilter": 9987,
      "wrapS": 10497,
      "wrapT": 10497
    }
  ],
  "scene": 0,
  "scenes": [
    {
      "name": "Sketchfab_Scene",
      "nodes": [
        0
      ]
    }
  ],
  "textures": [
    {
      "sampler": 0,
      "source": 0
    },
    {
      "sampler": 0,
      "source": 1
    },
    {
      "sampler": 0,
      "source": 2
    }
  ]
}
